<svg width="271" height="38" viewBox="0 0 271 38" fill="none" xmlns="http://www.w3.org/2000/svg">
<path d="M269.768 20.7678C270.744 19.7915 270.744 18.2086 269.768 17.2322L253.858 1.32234C252.882 0.346027 251.299 0.346027 250.322 1.32234C249.346 2.29865 249.346 3.88156 250.322 4.85787L264.464 19L250.322 33.1421C249.346 34.1185 249.346 35.7014 250.322 36.6777C251.299 37.654 252.882 37.654 253.858 36.6777L269.768 20.7678ZM168 21.5L268 21.5L268 16.5L168 16.5L168 21.5Z" fill="black"/>
<path d="M1.23223 20.7678C0.25592 19.7915 0.25592 18.2086 1.23223 17.2322L17.1421 1.32234C18.1184 0.346027 19.7014 0.346027 20.6777 1.32234C21.654 2.29865 21.654 3.88156 20.6777 4.85787L6.53554 19L20.6777 33.1421C21.654 34.1185 21.654 35.7014 20.6777 36.6777C19.7014 37.654 18.1184 37.654 17.1421 36.6777L1.23223 20.7678ZM103 21.5L3 21.5L3 16.5L103 16.5L103 21.5Z" fill="black"/>
</svg>
