<svg width="230" height="40" viewBox="0 0 230 40" fill="none" xmlns="http://www.w3.org/2000/svg">
<g clip-path="url(#clip0_26_174)">
<path fill-rule="evenodd" clip-rule="evenodd" d="M0 20.1117C0 30.055 7.22167 38.3233 16.6667 40V25.555H11.6667V20H16.6667V15.555C16.6667 10.555 19.8883 7.77833 24.445 7.77833C25.8883 7.77833 27.445 8 28.8883 8.22167V13.3333H26.3333C23.8883 13.3333 23.3333 14.555 23.3333 16.1117V20H28.6667L27.7783 25.555H23.3333V40C32.7783 38.3233 40 30.0567 40 20.1117C40 9.05 31 0 20 0C9 0 0 9.05 0 20.1117Z" fill="black"/>
</g>
<g clip-path="url(#clip1_26_174)">
<path d="M115 0C109.564 0 108.886 0.02625 106.759 0.11625C104.623 0.22125 103.178 0.5525 101.903 1.0475C100.568 1.55128 99.3596 2.34002 98.3613 3.35875C97.3397 4.35475 96.5505 5.56392 96.05 6.9C95.555 8.175 95.2238 9.62 95.1188 11.7562C95.0225 13.885 95.0025 14.5613 95.0025 19.9975C95.0025 25.4338 95.0288 26.1112 95.1188 28.2388C95.2238 30.3687 95.555 31.82 96.05 33.095C96.5538 34.4294 97.3425 35.6379 98.3613 36.6362C99.3572 37.6578 100.566 38.447 101.903 38.9475C103.178 39.4363 104.629 39.7738 106.759 39.8787C108.888 39.975 109.564 39.995 115 39.995C120.436 39.995 121.114 39.9688 123.241 39.8787C125.371 39.7738 126.823 39.435 128.098 38.9475C129.432 38.4437 130.64 37.655 131.639 36.6362C132.662 35.6413 133.451 34.4319 133.95 33.095C134.439 31.82 134.776 30.3687 134.881 28.2388C134.978 26.11 134.998 25.4338 134.998 19.9975C134.998 14.5613 134.971 13.8837 134.881 11.7562C134.776 9.62625 134.438 8.1675 133.95 6.9C133.446 5.56558 132.657 4.35708 131.639 3.35875C130.644 2.33586 129.434 1.54647 128.098 1.0475C126.823 0.5525 125.371 0.22125 123.241 0.11625C121.113 0.02 120.436 0 115 0ZM115 3.6C120.339 3.6 120.976 3.62625 123.086 3.71625C125.033 3.8075 126.093 4.1325 126.796 4.4075C127.666 4.72865 128.454 5.23981 129.101 5.90375C129.764 6.54853 130.273 7.33418 130.591 8.2025C130.866 8.90625 131.191 9.96625 131.283 11.9125C131.373 14.0225 131.399 14.6612 131.399 19.9987C131.399 25.3363 131.373 25.975 131.275 28.085C131.17 30.0312 130.845 31.0913 130.571 31.795C130.193 32.7337 129.77 33.39 129.073 34.1C128.423 34.7598 127.636 35.2685 126.768 35.59C126.073 35.865 124.998 36.19 123.044 36.2812C120.923 36.3713 120.298 36.3975 114.945 36.3975C109.593 36.3975 108.969 36.3713 106.845 36.2738C104.899 36.1688 103.825 35.8438 103.121 35.57C102.171 35.1912 101.52 34.7687 100.823 34.0713C100.119 33.3675 99.6713 32.6975 99.3263 31.7663C99.0463 31.0713 98.7263 29.9963 98.6225 28.0425C98.5513 25.9463 98.5175 25.2963 98.5175 19.9688C98.5175 14.6438 98.5513 13.9925 98.6225 11.87C98.7263 9.91625 99.0463 8.84375 99.3263 8.14625C99.6713 7.195 100.12 6.545 100.823 5.84125C101.519 5.145 102.171 4.695 103.121 4.3425C103.825 4.06875 104.873 3.74375 106.826 3.64625C108.948 3.57 109.573 3.5425 114.918 3.5425L115 3.6ZM115 9.73375C113.652 9.73326 112.316 9.99846 111.071 10.5142C109.825 11.03 108.693 11.7862 107.74 12.7396C106.786 13.693 106.03 14.8249 105.514 16.0707C104.998 17.3165 104.733 18.6517 104.734 20C104.733 21.3483 104.998 22.6835 105.514 23.9293C106.03 25.1751 106.786 26.307 107.74 27.2604C108.693 28.2138 109.825 28.97 111.071 29.4858C112.316 30.0015 113.652 30.2667 115 30.2662C116.348 30.2667 117.684 30.0015 118.929 29.4858C120.175 28.97 121.307 28.2138 122.26 27.2604C123.214 26.307 123.97 25.1751 124.486 23.9293C125.002 22.6835 125.267 21.3483 125.266 20C125.267 18.6517 125.002 17.3165 124.486 16.0707C123.97 14.8249 123.214 13.693 122.26 12.7396C121.307 11.7862 120.175 11.03 118.929 10.5142C117.684 9.99846 116.348 9.73326 115 9.73375ZM115 26.6663C111.315 26.6663 108.334 23.685 108.334 20C108.334 16.315 111.315 13.3337 115 13.3337C118.685 13.3337 121.666 16.315 121.666 20C121.666 23.685 118.685 26.6663 115 26.6663ZM128.08 9.32375C128.079 9.96083 127.826 10.5716 127.375 11.0218C126.924 11.4721 126.313 11.725 125.676 11.725C125.361 11.725 125.049 11.663 124.758 11.5424C124.467 11.4219 124.203 11.2452 123.98 11.0224C123.757 10.7997 123.581 10.5352 123.46 10.2442C123.34 9.95318 123.278 9.64126 123.278 9.32625C123.278 9.01124 123.34 8.69932 123.46 8.40829C123.581 8.11726 123.757 7.85282 123.98 7.63008C124.203 7.40733 124.467 7.23064 124.758 7.11009C125.049 6.98955 125.361 6.9275 125.676 6.9275C126.998 6.9275 128.08 8.0025 128.08 9.32375Z" fill="black"/>
</g>
<path d="M224.156 5.81511C222.314 3.9643 220.12 2.49698 217.703 1.49863C215.285 0.500287 212.693 -0.00911066 210.075 0.000123326C199.108 0.000123326 190.171 8.8951 190.161 19.8151C190.161 23.3126 191.08 26.715 192.815 29.7275L190 40L200.558 37.245C203.478 38.8273 206.75 39.6567 210.075 39.6575H210.085C221.055 39.6575 229.99 30.7625 230 19.8326C230.002 17.2277 229.487 14.648 228.484 12.2423C227.48 9.83652 226.009 7.65218 224.154 5.81511H224.156ZM210.075 36.3025C207.109 36.3035 204.198 35.509 201.647 34.0025L201.045 33.6425L194.782 35.2775L196.454 29.195L196.062 28.5675C194.404 25.9434 193.527 22.9051 193.533 19.8051C193.533 10.7401 200.959 3.34511 210.085 3.34511C212.26 3.34123 214.413 3.7658 216.421 4.59434C218.43 5.42288 220.254 6.639 221.788 8.1726C223.328 9.70022 224.548 11.5162 225.379 13.5157C226.21 15.5152 226.635 17.6587 226.63 19.8226C226.62 28.92 219.194 36.3025 210.075 36.3025ZM219.154 23.9676C218.659 23.7201 216.215 22.5226 215.756 22.3526C215.299 22.1901 214.965 22.1051 214.638 22.6001C214.304 23.0926 213.35 24.215 213.064 24.5375C212.777 24.87 212.481 24.9075 211.984 24.6625C211.489 24.4125 209.884 23.8926 207.986 22.2001C206.504 20.8876 205.512 19.2626 205.216 18.7701C204.93 18.2751 205.188 18.0101 205.437 17.7626C205.655 17.5426 205.932 17.1826 206.18 16.8976C206.431 16.6126 206.514 16.4026 206.678 16.0726C206.841 15.7376 206.763 15.4526 206.64 15.2051C206.514 14.9576 205.522 12.5151 205.103 11.5301C204.701 10.5576 204.292 10.6926 203.985 10.6801C203.699 10.6626 203.365 10.6626 203.031 10.6626C202.779 10.6688 202.531 10.7269 202.302 10.8332C202.073 10.9394 201.869 11.0916 201.703 11.2801C201.246 11.7751 199.967 12.9726 199.967 15.4151C199.967 17.8576 201.75 20.2051 202.002 20.5376C202.248 20.8701 205.502 25.8675 210.497 28.0175C211.678 28.53 212.607 28.8325 213.332 29.0625C214.525 29.4425 215.603 29.385 216.462 29.2625C217.416 29.1175 219.402 28.0625 219.822 26.905C220.234 25.745 220.234 24.755 220.108 24.5476C219.985 24.3376 219.651 24.215 219.154 23.9676Z" fill="black"/>
<defs>
<clipPath id="clip0_26_174">
<rect width="40" height="40" fill="white"/>
</clipPath>
<clipPath id="clip1_26_174">
<rect width="40" height="40" fill="white" transform="translate(95)"/>
</clipPath>
</defs>
</svg>
